<?xml version="1.0" encoding="UTF-8"?>
<svg xmlns="http://www.w3.org/2000/svg" xmlns:xlink="http://www.w3.org/1999/xlink" xmlns:svgjs="http://svgjs.com/svgjs" version="1.1" width="512" height="512" x="0" y="0" viewBox="0 0 512 512" style="enable-background:new 0 0 512 512" xml:space="preserve" class="">
  <g>
<g xmlns="http://www.w3.org/2000/svg">
	<g>
		<path d="M296.607,396.393L277.213,377c0.735-1.076,23.787-19.988,23.787-54.853V317c0-24.813-20.187-45-45-45s-45,20.187-45,45    v5.147c0,34.996,23.028,53.742,23.787,54.853l-19.393,19.394c-5.858,5.858-5.858,15.355,0,21.213    c5.857,5.858,15.355,5.858,21.213,0L256,398.213l19.394,19.393c5.857,5.858,15.355,5.859,21.213,0    C302.465,411.748,302.465,402.251,296.607,396.393z M271,322.147c0,21.47-14.355,32.711-15,33.64c-0.649-0.936-15-12.16-15-33.64    V317c0-8.271,6.729-15,15-15s15,6.729,15,15V322.147z" fill="#ffffff" data-original="#000000" style=""/>
	</g>
</g>
<g xmlns="http://www.w3.org/2000/svg">
	<g>
		<path d="M419.471,272.327l-78.54-99.887C353.02,164.363,361,150.598,361,135c0-24.794-20.157-44.969-44.945-44.999    C325.808,72.658,331,53.016,331,32.574V15c0-8.284-6.716-15-15-15H196c-8.284,0-15,6.716-15,15v17.574    c0,20.442,5.192,40.084,14.945,57.428C171.157,90.031,151,110.206,151,135c0,15.598,7.98,29.363,20.069,37.44L92.53,272.327    C72.197,297.768,61,329.711,61,362.28v5.637c0,48.285,23.985,93.101,64.161,119.884C148.907,503.632,176.543,512,205.083,512    h101.834c28.539,0,56.176-8.368,79.923-24.199c40.175-26.784,64.16-71.6,64.16-119.884v-5.637    C451,329.712,439.803,297.768,419.471,272.327z M211,30h90v2.574c0,21.337-7.593,41.508-21.499,57.426H271V75    c0-8.284-6.716-15-15-15s-15,6.716-15,15v15h-8.501C218.593,74.082,211,53.911,211,32.574V30z M196,120c12.692,0,107.223,0,120,0    c8.271,0,15,6.729,15,15s-6.729,15-15,15H196c-8.271,0-15-6.729-15-15S187.729,120,196,120z M421,367.917    c0,38.231-18.991,73.716-50.801,94.922C351.396,475.375,329.514,482,306.917,482H205.083c-22.597,0-44.479-6.625-63.282-19.161    C109.991,441.633,91,406.148,91,367.917v-5.637c0-25.806,8.878-51.116,24.999-71.267c0.026-0.033,0.053-0.066,0.079-0.099    L203.287,180h105.426l87.209,110.914c0.026,0.033,0.052,0.066,0.079,0.099C412.122,311.164,421,336.474,421,362.28V367.917z" fill="#ffffff" data-original="#000000" style=""/>
	</g>
</g>















</g>
</svg>
